<svg xmlns="http://www.w3.org/2000/svg" xmlns:xlink="http://www.w3.org/1999/xlink" width="500" zoomAndPan="magnify" viewBox="0 0 375 374.999991" height="500" preserveAspectRatio="xMidYMid meet" version="1.0"><defs><g/><clipPath id="e9e7315c26"><path d="M 51 116.71875 L 120 116.71875 L 120 181 L 51 181 Z M 51 116.71875 " clip-rule="nonzero"/></clipPath></defs><g clip-path="url(#e9e7315c26)"><path fill="#3f4770" d="M 68.671875 166.757812 C 67.949219 164.84375 67.875 164.441406 66.761719 162.769531 C 64.742188 159.738281 63.460938 154.066406 65.792969 150.910156 C 66.621094 149.792969 66.90625 150.210938 66.601562 148.949219 L 66.179688 146.964844 C 65.9375 145.527344 65.953125 144.039062 66.238281 142.613281 C 64.238281 141.265625 62.007812 140.25 59.847656 139.1875 L 58.199219 138.386719 C 57.992188 138.292969 57.699219 138.246094 57.53125 138.089844 L 57.480469 141.351562 C 57.488281 141.945312 57.488281 144.066406 57.757812 144.542969 C 57.855469 144.71875 58.328125 145.03125 58.5 145.191406 C 60.039062 146.628906 60.839844 149.011719 60.296875 151.066406 C 59.9375 152.417969 58.953125 153.121094 57.800781 153.777344 L 58.726562 156.695312 C 59.035156 157.789062 59.386719 159.191406 58.207031 159.914062 C 57.914062 160.089844 55.074219 160.164062 54.683594 160.066406 C 52.738281 159.589844 53.515625 157.421875 53.890625 156.140625 L 54.519531 153.972656 C 51.039062 151.859375 51.15625 147.875 54.011719 145.09375 C 54.375 144.742188 54.40625 144.847656 54.371094 144.355469 L 54.222656 142.613281 C 54.054688 140.832031 54.007812 138.492188 54.167969 136.707031 C 53.625 136.300781 52.945312 136.109375 52.402344 135.675781 C 50.820312 134.402344 51.585938 132.253906 53.222656 131.410156 L 79.222656 119.039062 C 81.207031 118.078125 82.933594 116.984375 85.1875 116.8125 C 86.496094 116.714844 87.9375 117.128906 89.132812 117.640625 L 115.789062 130.125 C 117.628906 130.925781 120.277344 132.128906 119.082031 134.785156 C 118.457031 136.171875 116.574219 136.789062 115.304688 137.398438 L 107.503906 141.210938 C 106.621094 141.667969 105.730469 142.179688 104.800781 142.535156 L 104.714844 142.566406 C 105.054688 144.28125 105.136719 146.839844 104.679688 148.535156 C 104.535156 149.070312 104.28125 149.515625 104.085938 150.023438 L 104.9375 151.410156 C 106.476562 154.363281 105.183594 160.523438 103.105469 162.964844 C 101.988281 164.28125 102.203125 164.207031 101.6875 165.832031 C 100.160156 170.632812 95.8125 176.5625 91.410156 178.832031 C 82.753906 183.292969 74.226562 178.277344 70.164062 170.160156 Z M 85.070312 120.25 C 83.585938 120.566406 82.195312 121.390625 80.835938 122.054688 L 55.964844 133.796875 C 57.410156 134.511719 58.960938 135.058594 60.4375 135.714844 C 62.289062 136.53125 64.066406 137.484375 65.84375 138.453125 L 68.082031 139.679688 C 70.492188 135.835938 78.917969 134.296875 83.050781 134.046875 L 86.402344 134 C 91.128906 134.085938 99.109375 135.386719 102.628906 139.015625 L 103.175781 139.703125 C 103.835938 139.21875 104.554688 138.875 105.285156 138.507812 L 108.144531 137.082031 C 110.507812 135.902344 112.851562 134.636719 115.28125 133.597656 C 114.191406 133.226562 113.140625 132.703125 112.097656 132.21875 L 89.800781 121.730469 C 88.378906 121.070312 86.695312 120.078125 85.070312 120.25 Z M 83.785156 137.347656 C 79.894531 137.566406 73.136719 138.726562 70.359375 141.867188 C 68.921875 143.492188 69.214844 145.609375 69.253906 147.59375 C 69.449219 147.035156 69.601562 146.445312 69.835938 145.90625 C 71.0625 143.074219 74.101562 142.203125 76.976562 142.707031 C 78.796875 143.023438 80.523438 143.742188 82.34375 144.085938 C 83.945312 144.386719 85.566406 144.351562 87.191406 144.304688 C 91.441406 143.890625 95.453125 140.773438 99.148438 143.832031 C 100.367188 144.839844 100.9375 146.214844 101.496094 147.648438 C 102.410156 144.835938 101.238281 141.84375 98.742188 140.304688 C 94.402344 137.625 88.75 137.160156 83.785156 137.347656 Z M 74.914062 145.824219 C 73.59375 146.0625 72.726562 146.992188 72.363281 148.242188 L 72.339844 148.3125 C 72.070312 149.253906 72.28125 150.316406 71.90625 151.230469 C 71.46875 152.289062 69.582031 153.617188 68.414062 152.632812 C 66.894531 154.703125 68.378906 159.195312 69.617188 161.011719 C 70.738281 162.648438 70.65625 161.863281 71.292969 164.082031 L 71.929688 166.035156 C 75.4375 175.507812 84.726562 181.46875 92.992188 173.390625 C 95.105469 171.25 96.789062 168.832031 97.898438 166.027344 C 98.359375 164.859375 98.707031 163.617188 99.242188 162.484375 C 99.558594 161.8125 100.128906 161.363281 100.542969 160.761719 C 101.71875 159.050781 102.320312 156.46875 102.316406 154.414062 C 102.316406 153.597656 102.339844 152.972656 101.4375 152.882812 C 98.585938 152.597656 98.921875 150.605469 98.1875 148.40625 C 97.757812 147.113281 96.394531 145.566406 94.878906 145.835938 C 93.734375 146.042969 92.617188 146.546875 91.503906 146.886719 C 87.699219 148.058594 83.640625 147.898438 79.824219 146.886719 L 77.21875 146.179688 C 76.515625 145.996094 75.648438 145.769531 74.914062 145.824219 Z M 55.855469 148 C 54.820312 148.96875 55.398438 151.363281 56.640625 150.714844 C 57.648438 150.003906 57.214844 147.71875 55.855469 148 Z M 55.855469 148 " fill-opacity="1" fill-rule="nonzero"/></g><path fill="#3f4770" d="M 60.953125 222.929688 L 47.546875 222.9375 C 38.359375 222.945312 40.148438 213.796875 41.664062 207.476562 C 43.726562 198.867188 48.175781 189.933594 56.792969 186.453125 C 57.542969 186.148438 58.320312 185.890625 59.050781 185.542969 C 60.351562 184.921875 61.492188 184.179688 62.890625 183.550781 L 65.8125 182.207031 C 67.527344 181.394531 69.339844 180.359375 71.292969 180.445312 C 72.203125 180.484375 72.761719 181.242188 73.300781 181.890625 L 77.796875 187.128906 C 79.421875 188.816406 81.40625 190.714844 83.835938 191.023438 L 83.9375 191.035156 C 90.613281 191.875 95.191406 181.070312 97.855469 180.292969 L 98.222656 180.28125 C 99.867188 180.296875 101.722656 181.359375 103.164062 182.039062 L 107.332031 184.117188 C 108.15625 184.5625 109.039062 184.921875 109.707031 185.597656 C 115.222656 186.308594 120.21875 191.257812 123 195.863281 C 126.320312 201.367188 128.664062 209.445312 128.71875 215.738281 C 128.769531 221.429688 125.867188 222.933594 120.605469 222.9375 Z M 70.402344 183.929688 L 67.480469 185.203125 C 70.175781 191.359375 74.757812 197.5625 79.441406 202.28125 L 81.988281 204.734375 C 82.894531 205.554688 83.847656 206.347656 84.652344 207.273438 L 89.339844 202.65625 C 91.949219 200.058594 94.425781 197.378906 96.515625 194.339844 C 98.082031 192.011719 100.683594 187.800781 101.589844 185.113281 L 98.71875 183.871094 C 98.082031 184.777344 97.316406 185.605469 96.621094 186.46875 C 91.65625 192.59375 86.007812 197.59375 78.441406 192.226562 C 75.925781 190.4375 73.824219 188.035156 71.953125 185.601562 C 71.636719 185.191406 70.929688 183.929688 70.402344 183.929688 Z M 104.6875 186.5 C 102.863281 191.6875 98.132812 198.351562 94.511719 202.269531 L 86.828125 209.703125 C 85.070312 211.273438 84.804688 211.699219 82.96875 210.175781 L 81.03125 208.492188 C 75.023438 203.140625 69.945312 197.230469 66.125 190.128906 L 64.511719 187.042969 C 64.265625 186.621094 64.355469 186.664062 63.925781 186.859375 L 61.390625 188.046875 L 63.433594 193.519531 C 68.121094 203.25 76.089844 210.605469 84.6875 216.890625 L 89.085938 213.472656 C 98.363281 205.964844 103.789062 199.257812 107.863281 188.199219 Z M 110.996094 189.300781 C 107.617188 199.777344 101.148438 207.703125 92.945312 214.710938 L 88.050781 218.546875 C 87.65625 218.832031 87.0625 219.148438 86.773438 219.535156 L 101.199219 219.546875 L 120.464844 219.550781 C 123.855469 219.550781 125.464844 219.375 125.402344 215.488281 C 125.371094 213.464844 125.003906 211.429688 124.570312 209.457031 C 122.8125 201.476562 118.910156 192.785156 110.996094 189.300781 Z M 58.09375 189.539062 C 50.34375 192.777344 46.746094 200.996094 44.820312 208.644531 C 44.238281 210.945312 43.769531 213.308594 43.761719 215.6875 C 43.746094 219.832031 45.523438 219.546875 48.699219 219.546875 L 68.292969 219.546875 L 82.554688 219.503906 C 82.253906 219.394531 82.183594 219.203125 81.945312 219.027344 L 78.78125 216.652344 C 71.425781 210.839844 64.21875 203.578125 60.328125 194.886719 L 59.144531 191.898438 C 58.859375 191.117188 58.597656 190.296875 58.203125 189.5625 Z M 58.09375 189.539062 " fill-opacity="1" fill-rule="nonzero"/><g fill="#f2efeb" fill-opacity="1"><g transform="translate(66.507788, 222.630172)"><g><path d="M 5.8125 0 L 1.15625 0 C 0.851562 0 0.632812 -0.113281 0.5 -0.34375 C 0.363281 -0.582031 0.363281 -0.816406 0.5 -1.046875 L 17.4375 -34.84375 C 17.601562 -35.132812 17.742188 -35.375 17.859375 -35.5625 C 17.984375 -35.75 18.128906 -35.84375 18.296875 -35.84375 L 18.453125 -35.84375 C 18.648438 -35.84375 18.796875 -35.75 18.890625 -35.5625 C 18.992188 -35.375 19.144531 -35.132812 19.34375 -34.84375 L 29.71875 -13.984375 L 23.859375 -13.984375 L 18.453125 -25.5625 L 18.34375 -25.5625 L 7.21875 -1.046875 C 6.976562 -0.648438 6.773438 -0.375 6.609375 -0.21875 C 6.441406 -0.0703125 6.175781 0 5.8125 0 Z M 35.59375 0 L 30.984375 0 C 30.609375 0 30.328125 -0.0703125 30.140625 -0.21875 C 29.960938 -0.375 29.773438 -0.648438 29.578125 -1.046875 L 26.265625 -7.921875 L 11.328125 -7.921875 L 13.6875 -13.078125 L 30.171875 -13.078125 L 36.296875 -1.046875 C 36.421875 -0.816406 36.414062 -0.582031 36.28125 -0.34375 C 36.15625 -0.113281 35.925781 0 35.59375 0 Z M 35.59375 0 "/></g></g></g><g fill="#f2efeb" fill-opacity="1"><g transform="translate(103.429194, 222.630172)"><g><path d="M 4.46875 -1.046875 L 4.46875 -34.03125 C 4.46875 -34.4375 4.539062 -34.710938 4.6875 -34.859375 C 4.832031 -35.015625 5.109375 -35.09375 5.515625 -35.09375 L 9.46875 -35.09375 C 9.90625 -35.09375 10.191406 -35.015625 10.328125 -34.859375 C 10.460938 -34.710938 10.53125 -34.4375 10.53125 -34.03125 L 10.53125 -1.046875 C 10.53125 -0.648438 10.453125 -0.375 10.296875 -0.21875 C 10.148438 -0.0703125 9.875 0 9.46875 0 L 5.515625 0 C 5.109375 0 4.832031 -0.0703125 4.6875 -0.21875 C 4.539062 -0.375 4.46875 -0.648438 4.46875 -1.046875 Z M 4.46875 -1.046875 "/></g></g></g><g fill="#f2efeb" fill-opacity="1"><g transform="translate(118.658716, 222.630172)"><g><path d="M 20 -4.65625 L 20 0.65625 C 17.488281 0.582031 15.15625 0.0546875 13 -0.921875 C 10.851562 -1.910156 8.976562 -3.238281 7.375 -4.90625 C 5.769531 -6.582031 4.523438 -8.503906 3.640625 -10.671875 C 2.753906 -12.847656 2.3125 -15.140625 2.3125 -17.546875 C 2.3125 -19.953125 2.757812 -22.238281 3.65625 -24.40625 C 4.5625 -26.582031 5.804688 -28.503906 7.390625 -30.171875 C 8.984375 -31.847656 10.851562 -33.175781 13 -34.15625 C 15.15625 -35.144531 17.488281 -35.671875 20 -35.734375 L 20 -30.421875 C 18.257812 -30.390625 16.675781 -30 15.25 -29.25 C 13.832031 -28.5 12.613281 -27.515625 11.59375 -26.296875 C 10.582031 -25.078125 9.800781 -23.707031 9.25 -22.1875 C 8.695312 -20.664062 8.421875 -19.117188 8.421875 -17.546875 C 8.421875 -15.972656 8.695312 -14.429688 9.25 -12.921875 C 9.800781 -11.421875 10.578125 -10.050781 11.578125 -8.8125 C 12.578125 -7.582031 13.796875 -6.59375 15.234375 -5.84375 C 16.671875 -5.09375 18.257812 -4.695312 20 -4.65625 Z M 31.078125 -8.578125 L 33.390625 -6.0625 C 33.648438 -5.726562 33.796875 -5.460938 33.828125 -5.265625 C 33.867188 -5.066406 33.738281 -4.816406 33.4375 -4.515625 C 31.894531 -3.003906 30.003906 -1.78125 27.765625 -0.84375 C 25.523438 0.0820312 23.222656 0.582031 20.859375 0.65625 L 20.859375 -4.65625 C 22.628906 -4.726562 24.253906 -5.128906 25.734375 -5.859375 C 27.222656 -6.597656 28.503906 -7.535156 29.578125 -8.671875 C 29.835938 -8.941406 30.070312 -9.078125 30.28125 -9.078125 C 30.476562 -9.078125 30.742188 -8.910156 31.078125 -8.578125 Z M 33.4375 -30.578125 C 33.695312 -30.304688 33.8125 -30.0625 33.78125 -29.84375 C 33.75 -29.632812 33.597656 -29.378906 33.328125 -29.078125 L 31.03125 -26.5625 C 30.695312 -26.226562 30.425781 -26.0625 30.21875 -26.0625 C 30.019531 -26.0625 29.789062 -26.195312 29.53125 -26.46875 C 28.488281 -27.601562 27.222656 -28.535156 25.734375 -29.265625 C 24.253906 -30.003906 22.628906 -30.390625 20.859375 -30.421875 L 20.859375 -35.734375 C 23.191406 -35.671875 25.492188 -35.171875 27.765625 -34.234375 C 30.035156 -33.296875 31.925781 -32.078125 33.4375 -30.578125 Z M 33.4375 -30.578125 "/></g></g></g><g fill="#f2efeb" fill-opacity="1"><g transform="translate(154.578177, 222.630172)"><g><path d="M 5.8125 0 L 1.15625 0 C 0.851562 0 0.632812 -0.113281 0.5 -0.34375 C 0.363281 -0.582031 0.363281 -0.816406 0.5 -1.046875 L 17.4375 -34.84375 C 17.601562 -35.132812 17.742188 -35.375 17.859375 -35.5625 C 17.984375 -35.75 18.128906 -35.84375 18.296875 -35.84375 L 18.453125 -35.84375 C 18.648438 -35.84375 18.796875 -35.75 18.890625 -35.5625 C 18.992188 -35.375 19.144531 -35.132812 19.34375 -34.84375 L 29.71875 -13.984375 L 23.859375 -13.984375 L 18.453125 -25.5625 L 18.34375 -25.5625 L 7.21875 -1.046875 C 6.976562 -0.648438 6.773438 -0.375 6.609375 -0.21875 C 6.441406 -0.0703125 6.175781 0 5.8125 0 Z M 35.59375 0 L 30.984375 0 C 30.609375 0 30.328125 -0.0703125 30.140625 -0.21875 C 29.960938 -0.375 29.773438 -0.648438 29.578125 -1.046875 L 26.265625 -7.921875 L 11.328125 -7.921875 L 13.6875 -13.078125 L 30.171875 -13.078125 L 36.296875 -1.046875 C 36.421875 -0.816406 36.414062 -0.582031 36.28125 -0.34375 C 36.15625 -0.113281 35.925781 0 35.59375 0 Z M 35.59375 0 "/></g></g></g><g fill="#f2efeb" fill-opacity="1"><g transform="translate(191.499579, 222.630172)"><g><path d="M 17.9375 -30.03125 L 11.28125 -30.03125 L 11.28125 -35.09375 L 18 -35.09375 C 20.46875 -35.09375 22.769531 -34.648438 24.90625 -33.765625 C 27.050781 -32.878906 28.929688 -31.640625 30.546875 -30.046875 C 32.171875 -28.460938 33.429688 -26.609375 34.328125 -24.484375 C 35.234375 -22.359375 35.6875 -20.046875 35.6875 -17.546875 C 35.6875 -15.035156 35.234375 -12.71875 34.328125 -10.59375 C 33.429688 -8.476562 32.171875 -6.625 30.546875 -5.03125 C 28.929688 -3.445312 27.050781 -2.210938 24.90625 -1.328125 C 22.769531 -0.441406 20.46875 0 18 0 L 11.28125 0 L 11.28125 -5.0625 L 17.9375 -5.0625 C 20.382812 -5.0625 22.46875 -5.644531 24.1875 -6.8125 C 25.90625 -7.988281 27.234375 -9.523438 28.171875 -11.421875 C 29.109375 -13.328125 29.578125 -15.367188 29.578125 -17.546875 C 29.578125 -19.753906 29.109375 -21.800781 28.171875 -23.6875 C 27.234375 -25.570312 25.90625 -27.097656 24.1875 -28.265625 C 22.46875 -29.441406 20.382812 -30.03125 17.9375 -30.03125 Z M 10.421875 0 L 5.40625 0 C 5.007812 0 4.734375 -0.0703125 4.578125 -0.21875 C 4.429688 -0.375 4.359375 -0.648438 4.359375 -1.046875 L 4.359375 -34.03125 C 4.359375 -34.4375 4.429688 -34.710938 4.578125 -34.859375 C 4.734375 -35.015625 5.007812 -35.09375 5.40625 -35.09375 L 10.421875 -35.09375 Z M 10.421875 0 "/></g></g></g><g fill="#f2efeb" fill-opacity="1"><g transform="translate(229.723489, 222.630172)"><g><path d="M 4.265625 -1.046875 L 4.265625 -34.03125 C 4.265625 -34.738281 4.628906 -35.09375 5.359375 -35.09375 L 10.328125 -35.09375 L 10.328125 0 L 5.359375 0 C 4.929688 0 4.640625 -0.0703125 4.484375 -0.21875 C 4.335938 -0.375 4.265625 -0.648438 4.265625 -1.046875 Z M 11.234375 -35.09375 L 27.875 -35.09375 C 28.601562 -35.09375 28.96875 -34.738281 28.96875 -34.03125 L 28.96875 -30.984375 C 28.96875 -30.242188 28.601562 -29.875 27.875 -29.875 L 11.234375 -29.875 Z M 28.96875 -4.109375 L 28.96875 -1.046875 C 28.96875 -0.648438 28.890625 -0.375 28.734375 -0.21875 C 28.585938 -0.0703125 28.300781 0 27.875 0 L 11.234375 0 L 11.234375 -5.15625 L 27.875 -5.15625 C 28.300781 -5.15625 28.585938 -5.085938 28.734375 -4.953125 C 28.890625 -4.828125 28.96875 -4.546875 28.96875 -4.109375 Z M 11.234375 -20.25 L 27.125 -20.25 C 27.550781 -20.25 27.832031 -20.179688 27.96875 -20.046875 C 28.101562 -19.910156 28.171875 -19.628906 28.171875 -19.203125 L 28.171875 -16.140625 C 28.171875 -15.734375 28.101562 -15.457031 27.96875 -15.3125 C 27.832031 -15.164062 27.550781 -15.09375 27.125 -15.09375 L 11.234375 -15.09375 Z M 11.234375 -20.25 "/></g></g></g><g fill="#f2efeb" fill-opacity="1"><g transform="translate(261.885687, 222.630172)"><g><path d="M 24.65625 -8.21875 L 40.859375 -35.28125 C 41.023438 -35.582031 41.222656 -35.734375 41.453125 -35.734375 L 42.109375 -35.734375 L 43.0625 -28.71875 L 26.0625 -0.40625 C 25.832031 -0.0703125 25.632812 0.1875 25.46875 0.375 C 25.300781 0.5625 25.113281 0.65625 24.90625 0.65625 L 24.359375 0.65625 C 24.160156 0.65625 23.976562 0.5625 23.8125 0.375 C 23.644531 0.1875 23.460938 -0.0703125 23.265625 -0.40625 L 6.265625 -28.71875 L 7.0625 -35.734375 L 7.875 -35.734375 C 8.101562 -35.734375 8.300781 -35.582031 8.46875 -35.28125 Z M 7.875 0 L 3.90625 0 C 3.101562 0 2.753906 -0.347656 2.859375 -1.046875 L 6.0625 -27.375 L 10.984375 -19.203125 L 8.921875 -1.046875 C 8.890625 -0.617188 8.804688 -0.335938 8.671875 -0.203125 C 8.535156 -0.0664062 8.269531 0 7.875 0 Z M 40.40625 -1.046875 L 38.296875 -19.140625 L 43.203125 -27.3125 L 46.46875 -1.046875 C 46.5625 -0.347656 46.207031 0 45.40625 0 L 41.453125 0 C 41.054688 0 40.789062 -0.0664062 40.65625 -0.203125 C 40.519531 -0.335938 40.4375 -0.617188 40.40625 -1.046875 Z M 40.40625 -1.046875 "/></g></g></g><g fill="#f2efeb" fill-opacity="1"><g transform="translate(311.381339, 222.630172)"><g><path d="M 13.328125 -13.234375 L 0.5 -34.03125 C 0.269531 -34.4375 0.203125 -34.710938 0.296875 -34.859375 C 0.398438 -35.015625 0.632812 -35.09375 1 -35.09375 L 5.5625 -35.09375 C 5.925781 -35.09375 6.191406 -35.015625 6.359375 -34.859375 C 6.523438 -34.710938 6.726562 -34.4375 6.96875 -34.03125 L 19.296875 -13.390625 L 19.203125 -13.234375 L 19.203125 -1.046875 C 19.203125 -0.648438 19.132812 -0.375 19 -0.21875 C 18.863281 -0.0703125 18.578125 0 18.140625 0 L 14.390625 0 C 13.984375 0 13.703125 -0.0703125 13.546875 -0.21875 C 13.398438 -0.375 13.328125 -0.648438 13.328125 -1.046875 Z M 32.03125 -34.03125 L 19.75 -14.1875 L 16.6875 -19.34375 L 25.65625 -34.03125 C 25.925781 -34.4375 26.144531 -34.710938 26.3125 -34.859375 C 26.476562 -35.015625 26.726562 -35.09375 27.0625 -35.09375 L 31.53125 -35.09375 C 31.894531 -35.09375 32.125 -35.015625 32.21875 -34.859375 C 32.320312 -34.710938 32.257812 -34.4375 32.03125 -34.03125 Z M 32.03125 -34.03125 "/></g></g></g></svg>